<svg aria-hidden="true" style="width: 0; height: 0; position: absolute; overflow: hidden" version="1.1" xmlns="http://www.w3.org/2000/svg" xmlns:xlink="http://www.w3.org/1999/xlink">
<defs>
<symbol id="icon-document-file-key" viewBox="0 0 32 32">
<path d="M21 26v2.003c0 1.107-0.894 1.997-1.997 1.997h-15.005c-1.107 0-1.997-0.899-1.997-2.007v-22.985c0-1.109 0.899-2.007 2.009-2.007h9.991v6.002c0 1.111 0.898 1.998 2.006 1.998h4.994v2h-8.993c-1.661 0-3.007 1.342-3.007 2.999v7.002c0 1.656 1.336 2.999 3.007 2.999h8.993zM15 3v5.997c0 0.554 0.451 1.003 0.991 1.003h5.009l-6-7zM11.995 14c-1.102 0-1.995 0.9-1.995 1.992v7.016c0 1.1 0.902 1.992 1.995 1.992h17.011c1.102 0 1.995-0.9 1.995-1.992v-7.016c0-1.1-0.902-1.992-1.995-1.992h-17.011zM19 20v2h4v1h-5v-7h5v1h-4v2h3v1h-3zM13 20.3v2.7h-1v-7h1v2.7l2.7-2.7h1.3l-3.5 3.5 3.5 3.5h-1.3l-2.7-2.7zM27 20v3h-1v-3l-2-3v-1h1v1l1.5 2.25 1.5-2.25v-1h1v1l-2 3z"></path>
</symbol>
<symbol id="icon-x" viewBox="0 0 32 32">
<path d="M24.325 3h4.411l-9.636 11.013 11.336 14.987h-8.876l-6.952-9.089-7.955 9.089h-4.413l10.307-11.78-10.875-14.22h9.101l6.284 8.308zM22.777 26.36h2.444l-15.776-20.859h-2.623z"></path>
</symbol>
<symbol id="icon-matrix" viewBox="0 0 32 32">
<path d="M0.843 0.733v30.533h2.197v0.733h-3.040v-32h3.040v0.733zM10.233 10.413v1.543h0.044c0.412-0.591 0.911-1.045 1.489-1.365 0.577-0.327 1.248-0.487 2-0.487 0.72 0 1.377 0.143 1.975 0.419 0.597 0.277 1.047 0.776 1.36 1.477 0.339-0.499 0.8-0.941 1.379-1.323 0.579-0.383 1.267-0.573 2.061-0.573 0.604 0 1.163 0.075 1.68 0.223 0.517 0.147 0.955 0.381 1.324 0.707 0.368 0.327 0.652 0.745 0.861 1.268 0.203 0.523 0.307 1.151 0.307 1.889v7.637h-3.132v-6.468c0-0.381-0.013-0.745-0.043-1.083-0.023-0.325-0.109-0.624-0.246-0.893l0.006 0.013c-0.136-0.253-0.335-0.456-0.577-0.594l-0.007-0.004c-0.259-0.147-0.609-0.221-1.047-0.221-0.443 0-0.8 0.085-1.071 0.252-0.267 0.166-0.483 0.39-0.635 0.656l-0.005 0.009c-0.153 0.268-0.261 0.581-0.306 0.915l-0.002 0.013c-0.049 0.313-0.078 0.676-0.080 1.044v6.36h-3.133v-6.4c0-0.339-0.005-0.671-0.024-1.003-0.012-0.333-0.081-0.647-0.197-0.936l0.007 0.019c-0.113-0.281-0.304-0.511-0.548-0.667l-0.006-0.003c-0.259-0.167-0.635-0.253-1.139-0.253-0.148 0-0.345 0.032-0.585 0.099-0.24 0.068-0.48 0.191-0.707 0.376-0.228 0.184-0.425 0.449-0.585 0.793-0.16 0.345-0.24 0.8-0.24 1.36v6.621h-3.132v-11.42zM31.157 31.267v-30.533h-2.197v-0.733h3.040v32h-3.040v-0.733z"></path>
</symbol>
<symbol id="icon-protonmail" viewBox="0 0 32 32">
<path d="M16 27.136c0 0-1.461-0.144-2.607-0.94-1.147-0.795-8.773-6.251-8.773-6.251v10.797c0 0 0.064 1.257 1.447 1.257h19.867c1.381 0 1.447-1.256 1.447-1.256v-10.8c0 0-7.631 5.456-8.773 6.253-1.147 0.793-2.607 0.939-2.607 0.939zM16 0.003c0 0-9.433-0.309-11.38 10.163v7.133c0 0 0.080 0.763 2.227 2.313 2.143 1.549 7.697 5.915 9.156 5.915 1.451 0 7.005-4.364 9.153-5.916 2.143-1.552 2.224-2.316 2.224-2.316v-7.133c-1.947-10.465-11.38-10.156-11.38-10.159zM22.461 14.051h-12.92v-3.885c1.312-5.2 6.459-5.272 6.459-5.272s5.151 0.072 6.461 5.272z"></path>
</symbol>
<symbol id="icon-discord" viewBox="0 0 32 32">
<path d="M26.963 0c1.875 0 3.387 1.516 3.476 3.3v28.7l-3.569-3.031-1.96-1.784-2.139-1.864 0.893 2.94h-18.717c-1.869 0-3.387-1.42-3.387-3.301v-21.653c0-1.784 1.52-3.303 3.393-3.303h22zM18.805 7.577h-0.040l-0.269 0.267c2.764 0.8 4.101 2.049 4.101 2.049-1.781-0.891-3.387-1.336-4.992-1.516-1.16-0.18-2.32-0.085-3.3 0h-0.267c-0.627 0-1.96 0.267-3.747 0.98-0.623 0.271-0.98 0.448-0.98 0.448s1.336-1.336 4.28-2.049l-0.18-0.18c0 0-2.229-0.085-4.636 1.693 0 0-2.407 4.192-2.407 9.36 0 0 1.333 2.32 4.991 2.408 0 0 0.533-0.711 1.073-1.336-2.053-0.624-2.853-1.872-2.853-1.872s0.179 0.088 0.447 0.267h0.080c0.040 0 0.059 0.020 0.080 0.040v0.008c0.021 0.021 0.040 0.040 0.080 0.040 0.44 0.181 0.88 0.36 1.24 0.533 0.621 0.269 1.42 0.537 2.4 0.715 1.24 0.18 2.661 0.267 4.28 0 0.8-0.18 1.6-0.356 2.4-0.713 0.52-0.267 1.16-0.533 1.863-0.983 0 0-0.8 1.248-2.94 1.872 0.44 0.621 1.060 1.333 1.060 1.333 3.659-0.080 5.080-2.4 5.16-2.301 0-5.16-2.42-9.36-2.42-9.36-2.18-1.619-4.22-1.68-4.58-1.68zM19.029 13.461c0.937 0 1.693 0.8 1.693 1.78 0 0.987-0.76 1.787-1.693 1.787s-1.693-0.8-1.693-1.779c0.003-0.987 0.764-1.784 1.693-1.788zM12.972 13.461c0.933 0 1.688 0.8 1.688 1.78 0 0.987-0.76 1.787-1.693 1.787s-1.693-0.8-1.693-1.779c0-0.987 0.76-1.784 1.699-1.788z"></path>
</symbol>
<symbol id="icon-gitea" viewBox="0 0 32 32">
<path d="M5.581 7.228c-2.46-0.005-5.755 1.559-5.573 5.48 0.284 6.125 6.56 6.693 9.068 6.743 0.275 1.149 3.227 5.112 5.412 5.32h9.573c5.741-0.381 10.040-17.363 6.853-17.427-5.271 0.248-8.395 0.373-11.073 0.395v5.3l-0.835-0.369-0.005-4.928c-3.075-0.001-5.781-0.144-10.919-0.397-0.643-0.004-1.539-0.113-2.501-0.116zM5.929 9.395h0.293c0.349 3.14 0.917 4.976 2.067 7.781-2.933-0.347-5.429-1.199-5.888-4.38-0.237-1.647 0.563-3.365 3.528-3.401zM17.339 12.481c0.2 0.003 0.404 0.040 0.596 0.128l0.999 0.431-0.716 1.305c-0.002 0-0.004-0-0.007-0-0.113 0-0.221 0.019-0.321 0.053l0.006-0.002c-0.349 0.114-0.593 0.406-0.593 0.749 0 0.097 0.019 0.189 0.055 0.275l-0.002-0.006c0.037 0.089 0.088 0.166 0.151 0.233l-0.001-0.001-1.235 2.248c-0.107 0.002-0.208 0.020-0.302 0.052l0.006-0.002c-0.349 0.114-0.593 0.406-0.593 0.749 0 0.097 0.019 0.189 0.055 0.275l-0.002-0.006c0.128 0.31 0.457 0.527 0.843 0.527 0.109 0 0.213-0.017 0.31-0.049l-0.006 0.002c0.348-0.114 0.592-0.406 0.592-0.749 0-0.097-0.020-0.19-0.056-0.277l0.002 0.006c-0.048-0.115-0.119-0.213-0.211-0.293l-0-0 1.203-2.189c0.029 0.003 0.062 0.005 0.095 0.005 0.106 0 0.207-0.016 0.302-0.046l-0.006 0.002c0.109-0.036 0.204-0.087 0.285-0.15l-0.001 0.001c0.464 0.195 0.844 0.353 1.117 0.488 0.411 0.203 0.556 0.337 0.6 0.487 0.044 0.147-0.004 0.429-0.236 0.925-0.173 0.369-0.46 0.893-0.799 1.511-0.006-0-0.013-0-0.020-0-0.113 0-0.222 0.019-0.321 0.053l0.006-0.002c-0.349 0.114-0.593 0.406-0.593 0.749 0 0.097 0.019 0.189 0.055 0.275l-0.002-0.006c0.128 0.31 0.457 0.527 0.843 0.527 0.109 0 0.213-0.017 0.31-0.049l-0.006 0.002c0.348-0.114 0.592-0.406 0.592-0.749 0-0.097-0.019-0.19-0.055-0.275l0.002 0.006c-0.043-0.104-0.105-0.194-0.183-0.27l0.001 0.001c0.335-0.611 0.623-1.136 0.808-1.531 0.251-0.536 0.381-0.935 0.267-1.32s-0.467-0.636-0.933-0.867c-0.307-0.151-0.689-0.311-1.147-0.503 0.001-0.015 0.002-0.033 0.002-0.050 0-0.096-0.019-0.188-0.054-0.274l0.002 0.006c-0.045-0.108-0.11-0.201-0.194-0.279l0 0 0.704-1.284 3.899 1.684c0.704 0.305 0.995 1.053 0.653 1.68l-2.68 4.907c-0.343 0.625-1.184 0.884-1.888 0.58l-5.516-2.384c-0.704-0.304-0.996-1.053-0.653-1.68l2.68-4.905c0.235-0.431 0.707-0.687 1.207-0.707z"></path>
</symbol>
<symbol id="icon-telegram" viewBox="0 0 28 28">
<path d="M18.578 20.422l2.297-10.828c0.203-0.953-0.344-1.328-0.969-1.094l-13.5 5.203c-0.922 0.359-0.906 0.875-0.156 1.109l3.453 1.078 8.016-5.047c0.375-0.25 0.719-0.109 0.438 0.141l-6.484 5.859-0.25 3.563c0.359 0 0.516-0.156 0.703-0.344l1.687-1.625 3.5 2.578c0.641 0.359 1.094 0.172 1.266-0.594zM28 14c0 7.734-6.266 14-14 14s-14-6.266-14-14 6.266-14 14-14 14 6.266 14 14z"></path>
</symbol>
<symbol id="icon-gitlab" viewBox="0 0 28 28">
<path d="M1.625 11.031l12.375 15.859-13.563-9.844c-0.375-0.281-0.531-0.766-0.391-1.203l1.578-4.813zM8.844 11.031h10.313l-5.156 15.859zM5.75 1.469l3.094 9.562h-7.219l3.094-9.562c0.172-0.484 0.859-0.484 1.031 0zM26.375 11.031l1.578 4.813c0.141 0.438-0.016 0.922-0.391 1.203l-13.563 9.844 12.375-15.859zM26.375 11.031h-7.219l3.094-9.562c0.172-0.484 0.859-0.484 1.031 0z"></path>
</symbol>
<symbol id="icon-twitch" viewBox="0 0 32 32">
<path d="M3 0l-3 5v23h8v4h4l4-4h5l9-9v-19h-27zM26 17l-5 5h-5l-4 4v-4h-6v-18h20v13z"></path>
<path d="M19 8h3v8h-3v-8z"></path>
<path d="M13 8h3v8h-3v-8z"></path>
</symbol>
<symbol id="icon-github" viewBox="0 0 32 32">
<path d="M16 0.395c-8.836 0-16 7.163-16 16 0 7.069 4.585 13.067 10.942 15.182 0.8 0.148 1.094-0.347 1.094-0.77 0-0.381-0.015-1.642-0.022-2.979-4.452 0.968-5.391-1.888-5.391-1.888-0.728-1.849-1.776-2.341-1.776-2.341-1.452-0.993 0.11-0.973 0.11-0.973 1.606 0.113 2.452 1.649 2.452 1.649 1.427 2.446 3.743 1.739 4.656 1.33 0.143-1.034 0.558-1.74 1.016-2.14-3.554-0.404-7.29-1.777-7.29-7.907 0-1.747 0.625-3.174 1.649-4.295-0.166-0.403-0.714-2.030 0.155-4.234 0 0 1.344-0.43 4.401 1.64 1.276-0.355 2.645-0.532 4.005-0.539 1.359 0.006 2.729 0.184 4.008 0.539 3.054-2.070 4.395-1.64 4.395-1.64 0.871 2.204 0.323 3.831 0.157 4.234 1.026 1.12 1.647 2.548 1.647 4.295 0 6.145-3.743 7.498-7.306 7.895 0.574 0.497 1.085 1.47 1.085 2.963 0 2.141-0.019 3.864-0.019 4.391 0 0.426 0.288 0.925 1.099 0.768 6.354-2.118 10.933-8.113 10.933-15.18 0-8.837-7.164-16-16-16z"></path>
</symbol>
</defs>
</svg>
